
<svg width="504px" height="146px" viewBox="0 0 504 146" version="1.1" xmlns="http://www.w3.org/2000/svg" xmlns:xlink="http://www.w3.org/1999/xlink">
    <defs>
        <linearGradient x1="50%" y1="110%" x2="50%" y2="-10%" id="linearGradient-1">
            <stop stop-color="#000000" stop-opacity="0" offset="0%"></stop>
            <stop stop-color="#000000" offset="100%"></stop>
        </linearGradient>
        <linearGradient x1="50%" y1="116.666667%" x2="50%" y2="-10%" id="linearGradient-2">
            <stop stop-color="#000000" stop-opacity="0" offset="0%"></stop>
            <stop stop-color="#000000" offset="100%"></stop>
        </linearGradient>
    </defs>
    <g id="Page-1" stroke="none" stroke-width="1" fill="none" fill-rule="evenodd">
        <g id="Tablet" transform="translate(0.000000, -878.000000)" fill-rule="nonzero">
            <g id="Protruding-Squares" transform="translate(336.000000, 878.000000)">
                <rect id="Rectangle" fill="#EE5522" x="0" y="0" width="84" height="73"></rect>
                <g id="Group" fill="#CA481D" fill-opacity="0.6">
                    <rect id="Rectangle" x="42" y="0" width="42" height="36.5"></rect>
                    <rect id="Rectangle" x="0" y="36.5" width="42" height="36.5"></rect>
                </g>
                <g id="Group">
                    <polygon id="Path" fill="url(#linearGradient-1)" points="42 10.8461538 0 0 84 0"></polygon>
                    <polygon id="Path" fill="url(#linearGradient-2)" points="42 36.1538462 0 47 0 36.1538462 84 36.1538462 84 47"></polygon>
                </g>
            </g>
            <g id="Protruding-Squares" transform="translate(0.000000, 878.000000)">
                <rect id="Rectangle" fill="#EE5522" x="0" y="0" width="84" height="73"></rect>
                <g id="Group" fill="#CA481D" fill-opacity="0.6">
                    <rect id="Rectangle" x="42" y="0" width="42" height="36.5"></rect>
                    <rect id="Rectangle" x="0" y="36.5" width="42" height="36.5"></rect>
                </g>
                <g id="Group">
                    <polygon id="Path" fill="url(#linearGradient-1)" points="42 10.8461538 0 0 84 0"></polygon>
                    <polygon id="Path" fill="url(#linearGradient-2)" points="42 36.1538462 0 47 0 36.1538462 84 36.1538462 84 47"></polygon>
                </g>
            </g>
            <g id="Protruding-Squares" transform="translate(420.000000, 878.000000)">
                <rect id="Rectangle" fill="#EE5522" x="0" y="0" width="84" height="73"></rect>
                <g id="Group" fill="#CA481D" fill-opacity="0.6">
                    <rect id="Rectangle" x="42" y="0" width="42" height="36.5"></rect>
                    <rect id="Rectangle" x="0" y="36.5" width="42" height="36.5"></rect>
                </g>
                <g id="Group">
                    <polygon id="Path" fill="url(#linearGradient-1)" points="42 10.8461538 0 0 84 0"></polygon>
                    <polygon id="Path" fill="url(#linearGradient-2)" points="42 36.1538462 0 47 0 36.1538462 84 36.1538462 84 47"></polygon>
                </g>
            </g>
            <g id="Protruding-Squares" transform="translate(84.000000, 878.000000)">
                <rect id="Rectangle" fill="#EE5522" x="0" y="0" width="84" height="73"></rect>
                <g id="Group" fill="#CA481D" fill-opacity="0.6">
                    <rect id="Rectangle" x="42" y="0" width="42" height="36.5"></rect>
                    <rect id="Rectangle" x="0" y="36.5" width="42" height="36.5"></rect>
                </g>
                <g id="Group">
                    <polygon id="Path" fill="url(#linearGradient-1)" points="42 10.8461538 0 0 84 0"></polygon>
                    <polygon id="Path" fill="url(#linearGradient-2)" points="42 36.1538462 0 47 0 36.1538462 84 36.1538462 84 47"></polygon>
                </g>
            </g>
            <g id="Protruding-Squares" transform="translate(168.000000, 878.000000)">
                <rect id="Rectangle" fill="#EE5522" x="0" y="0" width="84" height="73"></rect>
                <g id="Group" fill="#CA481D" fill-opacity="0.6">
                    <rect id="Rectangle" x="42" y="0" width="42" height="36.5"></rect>
                    <rect id="Rectangle" x="0" y="36.5" width="42" height="36.5"></rect>
                </g>
                <g id="Group">
                    <polygon id="Path" fill="url(#linearGradient-1)" points="42 10.8461538 0 0 84 0"></polygon>
                    <polygon id="Path" fill="url(#linearGradient-2)" points="42 36.1538462 0 47 0 36.1538462 84 36.1538462 84 47"></polygon>
                </g>
            </g>
            <g id="Protruding-Squares" transform="translate(252.000000, 878.000000)">
                <rect id="Rectangle" fill="#EE5522" x="0" y="0" width="84" height="73"></rect>
                <g id="Group" fill="#CA481D" fill-opacity="0.6">
                    <rect id="Rectangle" x="42" y="-1.77635684e-14" width="42" height="36.5"></rect>
                    <rect id="Rectangle" x="-7.10542736e-15" y="36.5" width="42" height="36.5"></rect>
                </g>
                <g id="Group">
                    <polygon id="Path" fill="url(#linearGradient-1)" points="42 10.8461538 0 0 84 0"></polygon>
                    <polygon id="Path" fill="url(#linearGradient-2)" points="42 36.1538462 0 47 0 36.1538462 84 36.1538462 84 47"></polygon>
                </g>
            </g>
            <g id="Protruding-Squares" transform="translate(336.000000, 951.000000)">
                <rect id="Rectangle" fill="#EE5522" x="0" y="0" width="84" height="73"></rect>
                <g id="Group" fill="#CA481D" fill-opacity="0.6">
                    <rect id="Rectangle" x="42" y="0" width="42" height="36.5"></rect>
                    <rect id="Rectangle" x="0" y="36.5" width="42" height="36.5"></rect>
                </g>
                <g id="Group">
                    <polygon id="Path" fill="url(#linearGradient-1)" points="42 10.8461538 0 0 84 0"></polygon>
                    <polygon id="Path" fill="url(#linearGradient-2)" points="42 36.1538462 0 47 0 36.1538462 84 36.1538462 84 47"></polygon>
                </g>
            </g>
            <g id="Protruding-Squares" transform="translate(0.000000, 951.000000)">
                <rect id="Rectangle" fill="#EE5522" x="0" y="0" width="84" height="73"></rect>
                <g id="Group" fill="#CA481D" fill-opacity="0.6">
                    <rect id="Rectangle" x="42" y="0" width="42" height="36.5"></rect>
                    <rect id="Rectangle" x="0" y="36.5" width="42" height="36.5"></rect>
                </g>
                <g id="Group">
                    <polygon id="Path" fill="url(#linearGradient-1)" points="42 10.8461538 0 0 84 0"></polygon>
                    <polygon id="Path" fill="url(#linearGradient-2)" points="42 36.1538462 0 47 0 36.1538462 84 36.1538462 84 47"></polygon>
                </g>
            </g>
            <g id="Protruding-Squares" transform="translate(420.000000, 951.000000)">
                <rect id="Rectangle" fill="#EE5522" x="0" y="0" width="84" height="73"></rect>
                <g id="Group" fill="#CA481D" fill-opacity="0.6">
                    <rect id="Rectangle" x="42" y="0" width="42" height="36.5"></rect>
                    <rect id="Rectangle" x="0" y="36.5" width="42" height="36.5"></rect>
                </g>
                <g id="Group">
                    <polygon id="Path" fill="url(#linearGradient-1)" points="42 10.8461538 0 0 84 0"></polygon>
                    <polygon id="Path" fill="url(#linearGradient-2)" points="42 36.1538462 0 47 0 36.1538462 84 36.1538462 84 47"></polygon>
                </g>
            </g>
            <g id="Protruding-Squares" transform="translate(84.000000, 951.000000)">
                <rect id="Rectangle" fill="#EE5522" x="0" y="0" width="84" height="73"></rect>
                <g id="Group" fill="#CA481D" fill-opacity="0.6">
                    <rect id="Rectangle" x="42" y="0" width="42" height="36.5"></rect>
                    <rect id="Rectangle" x="0" y="36.5" width="42" height="36.5"></rect>
                </g>
                <g id="Group">
                    <polygon id="Path" fill="url(#linearGradient-1)" points="42 10.8461538 0 0 84 0"></polygon>
                    <polygon id="Path" fill="url(#linearGradient-2)" points="42 36.1538462 0 47 0 36.1538462 84 36.1538462 84 47"></polygon>
                </g>
            </g>
            <g id="Protruding-Squares" transform="translate(168.000000, 951.000000)">
                <rect id="Rectangle" fill="#EE5522" x="0" y="0" width="84" height="73"></rect>
                <g id="Group" fill="#CA481D" fill-opacity="0.6">
                    <rect id="Rectangle" x="42" y="0" width="42" height="36.5"></rect>
                    <rect id="Rectangle" x="0" y="36.5" width="42" height="36.5"></rect>
                </g>
                <g id="Group">
                    <polygon id="Path" fill="url(#linearGradient-1)" points="42 10.8461538 0 0 84 0"></polygon>
                    <polygon id="Path" fill="url(#linearGradient-2)" points="42 36.1538462 0 47 0 36.1538462 84 36.1538462 84 47"></polygon>
                </g>
            </g>
            <g id="Protruding-Squares" transform="translate(252.000000, 951.000000)">
                <rect id="Rectangle" fill="#EE5522" x="0" y="0" width="84" height="73"></rect>
                <g id="Group" fill="#CA481D" fill-opacity="0.6">
                    <rect id="Rectangle" x="42" y="0" width="42" height="36.5"></rect>
                    <rect id="Rectangle" x="0" y="36.5" width="42" height="36.5"></rect>
                </g>
                <g id="Group">
                    <polygon id="Path" fill="url(#linearGradient-1)" points="42 10.8461538 0 0 84 0"></polygon>
                    <polygon id="Path" fill="url(#linearGradient-2)" points="42 36.1538462 0 47 0 36.1538462 84 36.1538462 84 47"></polygon>
                </g>
            </g>
        </g>
    </g>
</svg>